<svg xmlns="http://www.w3.org/2000/svg" width="28" height="28" viewBox="0 0 28 28" fill="none">
<path d="M3.73438 25.25V2.49219L5.44549 4.2033L7.1566 2.49219L8.86771 4.2033L10.5788 2.49219L12.2899 4.2033L14.001 2.49219L15.7122 4.2033L17.4233 2.49219L19.1344 4.2033L20.8455 2.49219L22.5566 4.2033L24.2677 2.49219V25.25L22.5566 23.5389L20.8455 25.25L19.1344 23.5389L17.4233 25.25L15.7122 23.5389L14.001 25.25L12.2899 23.5389L10.5788 25.25L8.86771 23.5389L7.1566 25.25L5.44549 23.5389L3.73438 25.25ZM7.07104 19.1185H21.0451V17.4074H7.07104V19.1185ZM7.07104 14.7266H21.0451V13.0155H7.07104V14.7266ZM7.07104 10.3063H21.0451V8.59515H7.07104V10.3063ZM5.44549 22.3696H22.5566V5.37256H5.44549V22.3696ZM5.44549 5.37256V22.3696V5.37256Z" fill="#666670"/>
</svg>