<svg xmlns="http://www.w3.org/2000/svg" width="30" height="30" viewBox="0 0 30 30" fill="none">
<path d="M19.9111 12.1924C20.0082 11.6838 19.6747 11.1928 19.1661 11.0957C18.6575 10.9986 18.1665 11.3321 18.0694 11.8407C18.0119 12.1419 17.9111 12.4277 17.7735 12.6917C17.6026 13.0195 17.375 13.3137 17.1034 13.5612C16.84 13.801 16.5361 13.9961 16.2037 14.135C16.0246 14.2098 15.837 14.2685 15.6426 14.309C15.1358 14.4148 14.8107 14.9114 14.9164 15.4183C15.0222 15.9251 15.5188 16.2502 16.0257 16.1445C16.3376 16.0794 16.639 15.9852 16.9267 15.865C17.4601 15.6421 17.946 15.3298 18.3659 14.9474C18.7989 14.553 19.1626 14.0833 19.4362 13.5583C19.6568 13.135 19.8188 12.676 19.9111 12.1924ZM7.5 3.4375C7.5 2.91973 7.91973 2.5 8.4375 2.5H21.5625C22.0803 2.5 22.5 2.91973 22.5 3.4375V11.5625C22.5 15.56 19.4977 18.8562 15.625 19.3193V25.6359L19.0595 25.625C19.5773 25.6234 19.9984 26.0418 20 26.5595C20.0016 27.0773 19.5832 27.4984 19.0655 27.5L14.6905 27.5139L14.684 27.5139L10.934 27.5C10.4163 27.4981 9.99809 27.0768 10 26.559C10.0019 26.0413 10.4232 25.6231 10.941 25.625L13.75 25.6354V19.3144C10.2234 18.855 7.5 15.8393 7.5 12.1875V3.4375ZM9.375 4.375V7.8125H20.625V4.375H9.375ZM9.375 12.1875C9.375 15.1215 11.7535 17.5 14.6875 17.5C17.9667 17.5 20.625 14.8417 20.625 11.5625V9.6875H9.375V12.1875Z" fill="#212121"/>
</svg>