<svg xmlns="http://www.w3.org/2000/svg" width="26" height="26" viewBox="0 0 26 26" fill="none">
<path d="M20.5005 0.5C20.7178 0.5 20.927 0.575465 21.0934 0.711281L21.1878 0.799891L25.2781 5.2103L25.3164 5.25893C25.4436 5.42851 25.5009 5.62082 25.5009 5.80969L25.4991 8.20842C25.4991 9.45114 25.0259 10.5834 24.2499 11.4347L24.2489 24.5625C24.2489 25.0371 23.8962 25.4294 23.4386 25.4914L23.3114 25.5H2.68953C2.21491 25.5 1.82266 25.1473 1.76059 24.6897L1.75203 24.5625L1.75105 11.4347C1.03473 10.6488 0.576443 9.62367 0.510177 8.49316L0.501855 8.20842L0.501608 5.86371C0.49152 5.69207 0.528587 5.51548 0.621524 5.35391L0.703101 5.23459L0.75207 5.17741L4.81319 0.799891C4.96102 0.64054 5.15861 0.538516 5.37131 0.508935L5.50047 0.5H20.5005ZM16.8529 11.0526L16.838 11.0748C15.9643 12.243 14.57 12.9991 12.999 12.9991C11.4192 12.9991 10.018 12.2345 9.14536 11.0551C8.27354 12.2345 6.87236 12.9991 5.29257 12.9991C4.70619 12.9991 4.14441 12.8938 3.62514 12.701L3.62672 23.6238H5.5L5.50047 15.1888C5.50047 14.7141 5.85317 14.3219 6.31076 14.2598L6.43797 14.2513H12.0579C12.5325 14.2513 12.9248 14.604 12.9868 15.0615L12.9954 15.1888L12.995 23.6238H22.373L22.3733 12.7019C21.8547 12.8941 21.2938 12.9991 20.7084 12.9991C19.1275 12.9991 17.7254 12.2334 16.8529 11.0526ZM11.1192 16.1263H7.37547V23.6238H11.1192V16.1263ZM19.5689 14.2513C20.0435 14.2513 20.4357 14.604 20.4978 15.0615L20.5064 15.1888V19.5663C20.5064 20.0409 20.1537 20.4331 19.6961 20.4952L19.5689 20.5038H15.1921C14.7175 20.5038 14.3252 20.1511 14.2631 19.6935L14.2546 19.5663V15.1888C14.2546 14.7141 14.6073 14.3219 15.0649 14.2598L15.1921 14.2513H19.5689ZM18.6305 16.1263H16.1292V18.6287H18.6305V16.1263ZM8.20797 6.7525H2.37672L2.37685 8.20842L2.38457 8.42221L2.42005 8.71124L2.46098 8.90661L2.52271 9.12157L2.59065 9.30637L2.6415 9.42387C2.68046 9.50872 2.72337 9.59136 2.77 9.67159L2.89868 9.87341L2.96653 9.9668L3.1275 10.1614L3.30472 10.3415L3.42503 10.4476L3.47764 10.4905C3.8708 10.8036 4.34669 11.0173 4.86723 11.0933L5.09294 11.1174L5.29257 11.1241C6.83578 11.1241 8.09897 9.92524 8.20156 8.40805L8.20828 8.20842L8.20797 6.7525ZM15.9142 6.7525H10.083L10.0833 8.20842C10.0833 9.68453 11.1802 10.9045 12.6034 11.0975L12.7994 11.1174L12.999 11.1241C14.5422 11.1241 15.8054 9.92524 15.908 8.40805L15.9147 8.20842L15.9142 6.7525ZM23.623 6.7525H17.7917L17.7927 8.20842C17.7927 9.68453 18.8896 10.9045 20.3127 11.0975L20.5088 11.1174L20.7084 11.1241C21.4138 11.1241 22.0606 10.8737 22.5649 10.4568L22.6771 10.3591L22.8219 10.217L23.0046 10.0055C23.0721 9.91931 23.135 9.82922 23.1926 9.73561L23.322 9.50223L23.4007 9.32978L23.4735 9.13592L23.5107 9.01642L23.5585 8.82635L23.5939 8.6294L23.6165 8.42097L23.6241 8.20842L23.623 6.7525ZM9.3275 2.37375H5.90922L3.58672 4.8775H8.5575L9.3275 2.37375ZM14.7112 2.37375H11.2887L10.5188 4.8775H15.4812L14.7112 2.37375ZM20.0905 2.37375H16.6725L17.4425 4.8775H22.413L20.0905 2.37375Z" fill="#666670"/>
</svg>