<svg xmlns="http://www.w3.org/2000/svg" width="24" height="26" viewBox="0 0 24 26" fill="none">
<path d="M19.5 13.1875V1.75C19.5 1.41848 19.3683 1.10054 19.1339 0.866116C18.8995 0.631696 18.5815 0.5 18.25 0.5C17.9185 0.5 17.6005 0.631696 17.3661 0.866116C17.1317 1.10054 17 1.41848 17 1.75V13.1875C15.9174 13.5018 14.9664 14.1594 14.29 15.0612C13.6136 15.9631 13.2486 17.0602 13.25 18.1875C13.25 20.75 15.15 25.4375 18.25 25.4375C21.35 25.4375 23.25 20.75 23.25 18.1875C23.2514 17.0602 22.8864 15.9631 22.21 15.0612C21.5336 14.1594 20.5826 13.5018 19.5 13.1875ZM18.25 23C17.25 23 15.75 20.1625 15.75 18.25C15.7194 17.5545 15.965 16.875 16.4334 16.3599C16.9017 15.8447 17.5547 15.5356 18.25 15.5C18.9453 15.5356 19.5983 15.8447 20.0666 16.3599C20.535 16.875 20.7806 17.5545 20.75 18.25C20.75 20.1625 19.25 23 18.25 23ZM9.5 0.5C9.16848 0.5 8.85054 0.631696 8.61612 0.866116C8.3817 1.10054 8.25 1.41848 8.25 1.75V8.575L7 9.4125V1.75C7 1.41848 6.8683 1.10054 6.63388 0.866116C6.39946 0.631696 6.08152 0.5 5.75 0.5C5.41848 0.5 5.10054 0.631696 4.86612 0.866116C4.6317 1.10054 4.5 1.41848 4.5 1.75V9.4125L3.25 8.575V1.75C3.25 1.41848 3.1183 1.10054 2.88388 0.866116C2.64946 0.631696 2.33152 0.5 2 0.5C1.66848 0.5 1.35054 0.631696 1.11612 0.866116C0.881696 1.10054 0.75 1.41848 0.75 1.75V9.25C0.751065 9.45588 0.802969 9.65832 0.9011 9.83931C0.99923 10.0203 1.14055 10.1743 1.3125 10.2875L4.5 12.425V24.25C4.5 24.5815 4.6317 24.8995 4.86612 25.1339C5.10054 25.3683 5.41848 25.5 5.75 25.5C6.08152 25.5 6.39946 25.3683 6.63388 25.1339C6.8683 24.8995 7 24.5815 7 24.25V12.425L10.1875 10.2875C10.3595 10.1743 10.5008 10.0203 10.5989 9.83931C10.697 9.65832 10.7489 9.45588 10.75 9.25V1.75C10.75 1.41848 10.6183 1.10054 10.3839 0.866116C10.1495 0.631696 9.83152 0.5 9.5 0.5Z" fill="#212121"/>
</svg>