<svg xmlns="http://www.w3.org/2000/svg" width="24" height="24" viewBox="0 0 24 24" fill="none">
<path d="M10.7984 2.39844C8.14747 2.39844 5.99844 4.54747 5.99844 7.19844C5.99844 9.8494 8.14747 11.9984 10.7984 11.9984C13.4494 11.9984 15.5984 9.8494 15.5984 7.19844C15.5984 4.54747 13.4494 2.39844 10.7984 2.39844ZM7.19844 7.19844C7.19844 5.21021 8.81021 3.59844 10.7984 3.59844C12.7867 3.59844 14.3984 5.21021 14.3984 7.19844C14.3984 9.18666 12.7867 10.7984 10.7984 10.7984C8.81021 10.7984 7.19844 9.18666 7.19844 7.19844ZM4.80891 13.1984C3.48222 13.1984 2.39844 14.2627 2.39844 15.5984C2.39844 17.6279 3.39781 19.158 4.96043 20.1543C6.4988 21.1352 8.57275 21.5984 10.7984 21.5984C11.2915 21.5984 11.777 21.5757 12.251 21.5297C11.966 21.175 11.7169 20.7903 11.5092 20.381C11.276 20.3926 11.0389 20.3984 10.7984 20.3984C8.71631 20.3984 6.89026 19.9617 5.60558 19.1425C4.34516 18.3389 3.59844 17.169 3.59844 15.5984C3.59844 14.9345 4.13587 14.3984 4.80891 14.3984L11.5181 14.3984C11.7376 13.9691 12.0027 13.567 12.307 13.1984L4.80891 13.1984ZM12.7605 16.7024C14.0661 16.3688 14.8413 15.0262 14.4773 13.7288L14.2899 13.0607C14.5948 12.8263 14.9252 12.6255 15.2762 12.4637L15.681 12.8932C16.6277 13.8978 18.2246 13.8986 19.1724 12.8951L19.562 12.4825C19.9194 12.6511 20.2551 12.8603 20.5638 13.1042L20.4124 13.611C20.0172 14.9335 20.8163 16.3161 22.1597 16.6337L22.5785 16.7327C22.6044 16.9508 22.6177 17.1729 22.6177 17.3983C22.6177 17.5855 22.6085 17.7704 22.5905 17.9527L22.0379 18.0939C20.7324 18.4274 19.9572 19.7701 20.3211 21.0675L20.5085 21.7354C20.2036 21.9699 19.8732 22.1707 19.5223 22.3326L19.1174 21.903C18.1707 20.8985 16.5738 20.8976 15.626 21.9012L15.236 22.3141C14.8787 22.1456 14.543 21.9365 14.2344 21.6927L14.386 21.1853C14.7812 19.8627 13.9821 18.4802 12.6387 18.1626L12.2193 18.0634C12.1934 17.8454 12.1801 17.6235 12.1801 17.3983C12.1801 17.211 12.1893 17.026 12.2073 16.8437L12.7605 16.7024ZM18.5989 17.3983C18.5989 16.7355 18.0616 16.1983 17.3989 16.1983C16.7362 16.1983 16.1989 16.7355 16.1989 17.3983C16.1989 18.061 16.7362 18.5983 17.3989 18.5983C18.0616 18.5983 18.5989 18.061 18.5989 17.3983Z" fill="#212121"/>
</svg>