<svg xmlns="http://www.w3.org/2000/svg" width="30" height="30" viewBox="0 0 30 30" fill="none">
<path d="M18.4375 5C17.9197 5 17.5 5.41973 17.5 5.9375C17.5 6.45527 17.9197 6.875 18.4375 6.875H19.6875V8.75H19.0625C17.5092 8.75 16.25 10.0092 16.25 11.5625V20.3125C16.25 21.8658 17.5092 23.125 19.0625 23.125H19.6875V25H18.4375C17.9197 25 17.5 25.4197 17.5 25.9375C17.5 26.4553 17.9197 26.875 18.4375 26.875H22.8125C23.3303 26.875 23.75 26.4553 23.75 25.9375C23.75 25.4197 23.3303 25 22.8125 25H21.5625V23.125H22.1875C23.7408 23.125 25 21.8658 25 20.3125V11.5625C25 10.0092 23.7408 8.75 22.1875 8.75H21.5625V6.875H22.8125C23.3303 6.875 23.75 6.45527 23.75 5.9375C23.75 5.41973 23.3303 5 22.8125 5H18.4375ZM18.125 11.5625C18.125 11.0447 18.5447 10.625 19.0625 10.625H22.1875C22.7053 10.625 23.125 11.0447 23.125 11.5625V13.75H18.125V11.5625ZM18.125 15.625H23.125V20.3125C23.125 20.8303 22.7053 21.25 22.1875 21.25H19.0625C18.5447 21.25 18.125 20.8303 18.125 20.3125V15.625ZM7.1875 2.5C6.66973 2.5 6.25 2.91973 6.25 3.4375C6.25 3.95527 6.66973 4.375 7.1875 4.375H8.4375V6.25H7.8125C6.2592 6.25 5 7.5092 5 9.0625V17.8125C5 19.3658 6.2592 20.625 7.8125 20.625H8.4375V22.5H7.1875C6.66973 22.5 6.25 22.9197 6.25 23.4375C6.25 23.9553 6.66973 24.375 7.1875 24.375H11.5625C12.0803 24.375 12.5 23.9553 12.5 23.4375C12.5 22.9197 12.0803 22.5 11.5625 22.5H10.3125V20.625H10.9375C12.4908 20.625 13.75 19.3658 13.75 17.8125V9.0625C13.75 7.5092 12.4908 6.25 10.9375 6.25H10.3125V4.375H11.5625C12.0803 4.375 12.5 3.95527 12.5 3.4375C12.5 2.91973 12.0803 2.5 11.5625 2.5H7.1875ZM7.8125 18.75C7.29473 18.75 6.875 18.3303 6.875 17.8125V15.625H11.875V17.8125C11.875 18.3303 11.4553 18.75 10.9375 18.75H7.8125ZM11.875 13.75H6.875V9.0625C6.875 8.54473 7.29473 8.125 7.8125 8.125H10.9375C11.4553 8.125 11.875 8.54473 11.875 9.0625V13.75Z" fill="#666670"/>
</svg>